# xmcd CD database file
#
# Track frame offsets:
#	182
#	26762
#	63632
#	85522
#
# Disc length: 1589 seconds
#
# Revision: 2
# Processed by: cddbd v1.5.2PL0 Copyright (c) Steve Scherf et al.
# Submitted via: CDex 1.78
#
DISCID=2a063304
DTITLE=DJ Franky Jones - Trance-O-Logic EP
DYEAR=1995
DGENRE=Techno
TTITLE0=DJ Franky Jones - Overwhelming Rain (jones and Stephensen Mix)
TTITLE1=DJ Franky Jones - Overwhelming Rain (Love Mix)
TTITLE2=DJ Franky Jones - Me and my two friends
TTITLE3=DJ Franky Jones - Trancid Overdose
EXTD=YEAR: 1995
EXTT0=
EXTT1=
EXTT2=
EXTT3=
PLAYORDER=
